PathFileType	4	(X/Y/Z)	RBDS017\RBDS017runT45.trc
DataRate	CameraRate	NumFrames	NumMarkers	Units	OrigDataRate	OrigDataStartFrame	OrigNumFrames
150.000000	150.000000	4	33	mm	150.000000	2812	4500
Frame#	Time	L.ASIS			L.Heel.Bottom			L.Heel.Lateral			L.Heel.Top			L.Iliac.Crest			L.MT1			L.MT5			L.PSIS			L.Shank.Bottom.Lateral			L.Shank.Bottom.Medial			L.Shank.Top.Lateral			L.Shank.Top.Medial			L.Thigh.Bottom.Lateral			L.Thigh.Bottom.Medial			L.Thigh.Top.Lateral			L.Thigh.Top.Medial			R.ASIS			R.ASY			R.Heel.Bottom			R.Heel.Lateral			R.Heel.Top			R.Iliac.Crest			R.MT1			R.MT5			R.PSIS			R.Shank.Bottom.Lateral			R.Shank.Bottom.Medial			R.Shank.Top.Lateral			R.Shank.Top.Medial			R.Thigh.Bottom.Lateral			R.Thigh.Bottom.Medial			R.Thigh.Top.Lateral			R.Thigh.Top.Medial			
		X1	Y1	Z1	X2	Y2	Z2	X3	Y3	Z3	X4	Y4	Z4	X5	Y5	Z5	X6	Y6	Z6	X7	Y7	Z7	X8	Y8	Z8	X9	Y9	Z9	X10	Y10	Z10	X11	Y11	Z11	X12	Y12	Z12	X13	Y13	Z13	X14	Y14	Z14	X15	Y15	Z15	X16	Y16	Z16	X17	Y17	Z17	X18	Y18	Z18	X19	Y19	Z19	X20	Y20	Z20	X21	Y21	Z21	X22	Y22	Z22	X23	Y23	Z23	X24	Y24	Z24	X25	Y25	Z25	X26	Y26	Z26	X27	Y27	Z27	X28	Y28	Z28	X29	Y29	Z29	X30	Y30	Z30	X31	Y31	Z31	X32	Y32	Z32	X33	Y33	Z33	

2813	18.74666666666667	2280.018249752216	999.328798718007	841.9529144052841	2100.415762874481	35.82193631061353	961.8263853807181	2118.241518338489	57.17371901333516	924.8302237397482	2114.719005784233	79.71930002838391	967.8454076443921	2207.433811504971	1085.278105820663	813.0380190597349	2333.0526660638	42.92223074907367	963.7184756013237	2276.188810423329	41.45798377555005	859.7364930472387	2115.169691072461	1068.802551493005	954.8539449547894	2215.694548532302	177.7548974986116	897.4221268277038	2173.096713192816	197.0857421103005	927.1701829869127	2234.074456673429	253.6814039115937	876.0146953510165	2192.743316119038	273.1427125357092	905.175756975589	2309.483785634607	634.8995216177375	822.425099960309	2252.462633326638	610.1545868026776	859.6616617640352	2256.715676902566	731.1647348177069	810.6445574065859	2203.359918548418	708.4186460811937	846.5581208604789	2292.385405738261	975.6524024903657	1127.16524573095	1774.372606036922	481.5130221325567	1058.130670295853	1868.521420281755	663.826945413418	1041.997486375743	1860.060157674925	636.3289746087663	1085.124925698172	1895.927981571741	626.1174620941388	1054.759941725152	2261.315768032815	1067.683333419085	1164.278349902803	1746.686565886597	477.9841457706336	1003.640018223876	1736.376554750417	526.0040911118321	1107.926714793729	2123.677669087405	1059.693155555855	1052.494162218647	1951.053502437237	559.7492085087295	1119.420240843819	1964.299577523663	593.989181407851	1083.387015039807	2033.863491849778	548.9141354637424	1136.758740227532	2043.198518866275	587.0107626856202	1101.29556749177	2251.726712501551	597.7458895227371	1174.896502244011	2198.64759098782	581.2738667933563	1127.392454797486	2215.812542528568	701.4486743063987	1174.860200898208	2166.305974703332	686.228737200302	1128.919073590057	
2814	18.75333333333333	2278.692839161709	997.107907008965	840.8518011885581	2070.235029219959	36.16459245595743	961.696827427482	2087.964681548297	57.71819448111216	924.7200686191026	2084.229185726038	80.14441049422899	967.7214216613426	2205.705884844965	1083.854756779125	812.5441026843412	2302.476223808792	43.54473842092514	963.2139468712663	2245.600186091229	42.10346417457231	859.4944348734099	2114.06525034221	1068.606196877658	953.9097538986074	2188.931853348167	177.5475679839449	897.7236672414973	2146.817322449199	198.2906559337201	927.1915750824629	2210.049539529437	252.7666610732889	876.4621413798159	2169.204868107935	273.5943946469376	905.3375037768559	2299.024027384006	630.8503358509095	822.9568895156798	2240.877502542009	607.8664075674837	859.5837734253378	2249.392715306189	728.710006686327	810.8433155173975	2195.000500713532	707.6248215915275	846.2529554158182	2289.501630380398	974.4813201419704	1127.901867787955	1794.115424430125	472.8836975455192	1058.199722299901	1883.011678231374	658.3356615746268	1046.040401376709	1875.402330579808	629.5938908197918	1088.602769405358	1911.494657555176	621.2319356256629	1057.952334606275	2254.878930914546	1066.234905675845	1165.251600382343	1766.651146711849	469.7149766713752	1003.501968376101	1754.965844687928	515.0593865018376	1108.999691788739	2121.492825317052	1059.188041289557	1051.233009322675	1968.935947263679	554.90486220925	1121.362039127931	1981.255729311008	590.0403588414908	1085.829962695985	2052.006806868925	545.7519407959107	1138.346163895212	2060.311747796501	584.6712386783773	1103.490415170518	2265.949749994943	600.348731402996	1175.391129695188	2213.430290039305	581.0797228446854	1128.461708272571	2225.001044947652	702.0622545741579	1175.151582394143	2175.846864786768	684.1309838279657	1129.930142185915	
2815	18.76	2277.92476213758	995.5979339001204	840.0957048234154	2039.877810531485	36.68984328678328	961.4288384372899	2057.531266834381	58.31788230821505	924.3983582774621	2053.531666198996	80.78701326589179	967.3140276230718	2204.482627698547	1083.432258882315	811.9402978225216	2271.76650148996	44.09675285451734	962.6307079727022	2214.95858347657	42.51328812743712	859.1817726691846	2113.372579902978	1069.105575251926	952.6750198960096	2161.44153161077	177.6025238728909	897.7411228986232	2119.880026122673	199.5248963019665	927.0667994351837	2184.934822584853	252.0820748499236	876.7171484473963	2144.618851376654	274.0602905036336	905.4156585690993	2287.195813308742	627.1258762892334	823.5481203274705	2227.826391933174	606.1843540472527	859.4465783337033	2241.195308765842	726.7117628349419	811.1096377930966	2185.709823043829	707.5626527499021	845.97352955519	2286.873658301852	974.5538974506962	1128.881024588811	1814.254552792137	462.373650023406	1058.26619878786	1896.17661515416	651.3709510427717	1049.353670835313	1889.697892727498	621.5933817819455	1091.494298313175	1925.99862767682	615.2189280879639	1060.507998714758	2248.114239124959	1066.080178099591	1166.369978419196	1786.889193829229	459.1297215876194	1003.568263255876	1773.61066757838	502.1574427773087	1110.038078359456	2119.706742113681	1059.504669868663	1049.816392134558	1986.286849066434	549.467014961048	1122.939978519904	1997.376475520692	585.5372636783106	1087.923390489339	2069.585159819851	542.6865199898205	1139.659715104764	2076.556966326571	582.4300267860283	1105.385463885753	2280.176151215328	604.489706013645	1175.768503136045	2228.504205519057	582.4620975487936	1129.218859102488	2234.208949136727	703.9395792377113	1175.362672668728	2185.596138546094	683.2981345422014	1130.791483490349	
2816	18.76666666666667	2277.73543759977	994.8371123149567	839.7493523258162	2009.332065034957	37.64579585888085	961.040494955102	2026.975953904101	59.20656862647922	923.8960567384178	2022.705102977233	81.87514954301224	966.6722922035588	2203.919795858537	1083.922464265339	811.2657719781577	2240.925988972179	44.47715797294477	962.06502223555	2184.265475087289	42.69632038638171	858.8535400958356	2113.094086572753	1070.255614599244	951.2144985802464	2133.395932237889	178.0994622390113	897.5290594176082	2092.412857942992	200.9939293166945	926.8284599473084	2158.940665351639	251.8457849489874	876.8036410591936	2119.152073148387	274.7820729671187	905.4111229266636	2274.175216971946	623.9721158994068	824.1984572361523	2213.542498519105	605.3218261010608	859.2773946874152	2232.218910243216	725.327519340575	811.4434686707025	2175.646711288011	708.3598162678067	845.7539411220927	2284.600859582184	975.8204484763985	1130.026624506821	1834.849871155415	450.1599227622721	1058.385307129548	1908.103221690061	642.883853106757	1051.796700246381	1903.032989998247	612.3544868416606	1093.671206155729	1939.485354288614	608.0502526338898	1062.312390365961	2241.458742890948	1067.113097846307	1167.527311266738	1807.461840188807	446.3680754662406	1003.897124999169	1792.436297359637	487.5222464257263	1111.064915489656	2118.351851282222	1060.592499686517	1048.313209298444	2003.08145800268	543.4947636836389	1124.100171141463	2012.651783317141	580.4784861246097	1089.587624147153	2086.518147603115	539.7382462648428	1140.669106450465	2091.876050600447	580.2452293893593	1106.917731299448	2294.21253905383	610.0907847322053	1176.067832331196	2243.652461806321	585.4028366008548	1129.688741830569	2243.327569224367	707.04489343062	1175.532780528354	2195.438455731365	683.7456998177113	1131.517848515851	
